<?xml version="1.0" encoding="utf-8"?>

<!DOCTYPE svg PUBLIC "-//W3C//DTD SVG 1.1//EN" "http://www.w3.org/Graphics/SVG/1.1/DTD/svg11.dtd">
<svg version="1.1" id="Layer_1" xmlns="http://www.w3.org/2000/svg" xmlns:xlink="http://www.w3.org/1999/xlink" x="0px" y="0px"
	 viewBox="0 0 903.7288 1712.5328" enable-background="new 0 0 903.7288 1712.5328" xml:space="preserve">
<g>
	<path d="M801.3882,925.212c-4.1222,17.1665-14.6907,29.3257-30.4462,35.1493c-25.9366,9.5861-46.9487-1.978-59.9796-24.6365
		c-2.2269-3.8456-3.9421-7.9816-5.2701-12.2144l-96.4429-305.9421c-1.7014-5.3809-9.6276-4.288-9.7938,1.3694L593.881,805.087
		l106.3336,797.895c3.7487,28.2191-18.1904,53.2844-46.6586,53.2844h-65.1804c-23.7371,0-43.7536-17.6509-46.7137-41.1945
		l-89.803-714.0814l-89.8032,714.0814c-2.9602,23.5436-22.9764,41.1945-46.6999,41.1945h-65.1806
		c-28.4682,0-50.4208-25.0653-46.6583-53.2844l106.3334-797.895l-5.5747-186.1494c-0.166-5.6574-8.106-6.7503-9.7936-1.3694
		l-96.4429,305.9421c-1.3418,4.2328-3.0572,8.3688-5.2704,12.2144c-13.0443,22.6584-34.0566,34.2225-59.9794,24.6365
		c-15.7695-5.8236-26.324-17.9828-30.4601-35.1493c-2.5452-10.61-2.0059-21.7316,1.0236-32.2169l138.4257-479.3928
		c13.0031-45.0538,54.2389-76.067,101.1324-76.067h217.9096c46.8934,0,88.1293,31.0132,101.1321,76.067l138.4258,479.3928
		C803.4078,903.4804,803.9474,914.6019,801.3882,925.212z"/>
	<circle cx="451.8644" cy="185.3735" r="129.107"/>
</g>
</svg>
